# xmcd
#
# Track frame offsets:
#	150
#	23512
#	42692
#
# Disc length: 934 seconds
#
# Revision: 0
# Processed by: cddbd v1.5.1PL0 Copyright (c) Steve Scherf et al.
# Submitted via: dBpowerAMP V4.0
#
DISCID=1d03a403
DTITLE=Lloyd Cole - Forest Fire
DYEAR=1989
DGENRE=Blues
TTITLE0=Forest Fire (7" remix)
TTITLE1=Perfect Blue (remix)
TTITLE2=Forest Fire (Extended Remix)
EXTD=CD Single, Lloyd Cole and the Commotions - Forest Fire
EXTT0=
EXTT1=
EXTT2=
PLAYORDER=
